<mxfile host="app.diagrams.net" modified="2023-06-14T07:47:05.835Z" agent="Mozilla/5.0 (Windows NT 10.0; Win64; x64) AppleWebKit/537.36 (KHTML, like Gecko) Chrome/114.0.0.0 Safari/537.36" etag="q9EHdJH5RUXZiMTSdxgu" version="21.3.7" type="github">
  <diagram name="Page-1" id="2YBvvXClWsGukQMizWep">
    <mxGraphModel dx="1272" dy="2468" grid="0" gridSize="10" guides="1" tooltips="1" connect="1" arrows="1" fold="1" page="1" pageScale="1" pageWidth="1400" pageHeight="850" background="#FFFFFF" math="0" shadow="0">
      <root>
        <mxCell id="0" />
        <mxCell id="1" parent="0" />
        <mxCell id="gwQ7Bb53ZdeWD7UEAoTN-44" style="edgeStyle=orthogonalEdgeStyle;rounded=0;orthogonalLoop=1;jettySize=auto;html=1;exitX=0.5;exitY=1;exitDx=0;exitDy=0;entryX=0.5;entryY=0;entryDx=0;entryDy=0;dashed=1;labelBackgroundColor=none;strokeColor=#457B9D;fontColor=default;" edge="1" parent="1" source="gwQ7Bb53ZdeWD7UEAoTN-10" target="gwQ7Bb53ZdeWD7UEAoTN-21">
          <mxGeometry relative="1" as="geometry" />
        </mxCell>
        <mxCell id="gwQ7Bb53ZdeWD7UEAoTN-10" value="&lt;font style=&quot;font-size: 15px;&quot;&gt;Consignee&lt;/font&gt;" style="rounded=0;whiteSpace=wrap;html=1;labelBackgroundColor=none;fillColor=#A8DADC;strokeColor=#457B9D;fontColor=#1D3557;" vertex="1" parent="1">
          <mxGeometry x="178" y="-1560" width="160" height="40" as="geometry" />
        </mxCell>
        <mxCell id="gwQ7Bb53ZdeWD7UEAoTN-46" style="edgeStyle=orthogonalEdgeStyle;rounded=0;orthogonalLoop=1;jettySize=auto;html=1;exitX=0.5;exitY=1;exitDx=0;exitDy=0;entryX=0.5;entryY=0;entryDx=0;entryDy=0;dashed=1;labelBackgroundColor=none;strokeColor=#457B9D;fontColor=default;" edge="1" parent="1" source="gwQ7Bb53ZdeWD7UEAoTN-13" target="gwQ7Bb53ZdeWD7UEAoTN-22">
          <mxGeometry relative="1" as="geometry" />
        </mxCell>
        <mxCell id="gwQ7Bb53ZdeWD7UEAoTN-13" value="&lt;font style=&quot;font-size: 15px;&quot;&gt;Consigner&lt;/font&gt;" style="rounded=0;whiteSpace=wrap;html=1;labelBackgroundColor=none;fillColor=#A8DADC;strokeColor=#457B9D;fontColor=#1D3557;" vertex="1" parent="1">
          <mxGeometry x="378" y="-1560" width="160" height="40" as="geometry" />
        </mxCell>
        <mxCell id="gwQ7Bb53ZdeWD7UEAoTN-47" style="edgeStyle=orthogonalEdgeStyle;rounded=0;orthogonalLoop=1;jettySize=auto;html=1;exitX=0.5;exitY=1;exitDx=0;exitDy=0;entryX=0.5;entryY=0;entryDx=0;entryDy=0;dashed=1;labelBackgroundColor=none;strokeColor=#457B9D;fontColor=default;" edge="1" parent="1" source="gwQ7Bb53ZdeWD7UEAoTN-14" target="gwQ7Bb53ZdeWD7UEAoTN-23">
          <mxGeometry relative="1" as="geometry" />
        </mxCell>
        <mxCell id="gwQ7Bb53ZdeWD7UEAoTN-14" value="&lt;font style=&quot;font-size: 15px;&quot;&gt;Transport Company&lt;/font&gt;" style="rounded=0;whiteSpace=wrap;html=1;labelBackgroundColor=none;fillColor=#A8DADC;strokeColor=#457B9D;fontColor=#1D3557;" vertex="1" parent="1">
          <mxGeometry x="578" y="-1560" width="160" height="40" as="geometry" />
        </mxCell>
        <mxCell id="gwQ7Bb53ZdeWD7UEAoTN-48" style="edgeStyle=orthogonalEdgeStyle;rounded=0;orthogonalLoop=1;jettySize=auto;html=1;exitX=0.5;exitY=1;exitDx=0;exitDy=0;entryX=0.5;entryY=0;entryDx=0;entryDy=0;dashed=1;labelBackgroundColor=none;strokeColor=#457B9D;fontColor=default;" edge="1" parent="1" source="gwQ7Bb53ZdeWD7UEAoTN-15" target="gwQ7Bb53ZdeWD7UEAoTN-25">
          <mxGeometry relative="1" as="geometry" />
        </mxCell>
        <mxCell id="gwQ7Bb53ZdeWD7UEAoTN-15" value="&lt;font style=&quot;font-size: 15px;&quot;&gt;Transfer Station&lt;/font&gt;" style="rounded=0;whiteSpace=wrap;html=1;labelBackgroundColor=none;fillColor=#A8DADC;strokeColor=#457B9D;fontColor=#1D3557;" vertex="1" parent="1">
          <mxGeometry x="778" y="-1560" width="160" height="40" as="geometry" />
        </mxCell>
        <mxCell id="gwQ7Bb53ZdeWD7UEAoTN-49" style="edgeStyle=orthogonalEdgeStyle;rounded=0;orthogonalLoop=1;jettySize=auto;html=1;exitX=0.5;exitY=1;exitDx=0;exitDy=0;entryX=0.5;entryY=0;entryDx=0;entryDy=0;dashed=1;labelBackgroundColor=none;strokeColor=#457B9D;fontColor=default;" edge="1" parent="1" source="gwQ7Bb53ZdeWD7UEAoTN-16" target="gwQ7Bb53ZdeWD7UEAoTN-26">
          <mxGeometry relative="1" as="geometry" />
        </mxCell>
        <mxCell id="gwQ7Bb53ZdeWD7UEAoTN-16" value="&lt;font style=&quot;font-size: 15px;&quot;&gt;Transfer Station&lt;/font&gt;" style="rounded=0;whiteSpace=wrap;html=1;labelBackgroundColor=none;fillColor=#A8DADC;strokeColor=#457B9D;fontColor=#1D3557;" vertex="1" parent="1">
          <mxGeometry x="1020" y="-1560" width="160" height="40" as="geometry" />
        </mxCell>
        <mxCell id="gwQ7Bb53ZdeWD7UEAoTN-18" value="" style="endArrow=none;dashed=1;html=1;dashPattern=1 3;strokeWidth=2;rounded=0;labelBackgroundColor=none;strokeColor=#457B9D;fontColor=default;" edge="1" parent="1">
          <mxGeometry width="50" height="50" relative="1" as="geometry">
            <mxPoint x="958" y="-1535.5" as="sourcePoint" />
            <mxPoint x="1000" y="-1535" as="targetPoint" />
            <Array as="points">
              <mxPoint x="988" y="-1535.5" />
            </Array>
          </mxGeometry>
        </mxCell>
        <mxCell id="gwQ7Bb53ZdeWD7UEAoTN-19" value="Begin" style="html=1;verticalAlign=bottom;startArrow=circle;startFill=1;endArrow=open;startSize=6;endSize=8;edgeStyle=elbowEdgeStyle;elbow=vertical;curved=0;rounded=0;labelBackgroundColor=none;strokeColor=#457B9D;fontColor=#000000;entryX=0;entryY=0.5;entryDx=0;entryDy=0;" edge="1" parent="1" target="gwQ7Bb53ZdeWD7UEAoTN-21">
          <mxGeometry x="0.0753" width="80" relative="1" as="geometry">
            <mxPoint x="118" y="-1440.5600000000002" as="sourcePoint" />
            <mxPoint x="198" y="-1440.5600000000002" as="targetPoint" />
            <mxPoint as="offset" />
          </mxGeometry>
        </mxCell>
        <mxCell id="gwQ7Bb53ZdeWD7UEAoTN-29" style="edgeStyle=orthogonalEdgeStyle;rounded=0;orthogonalLoop=1;jettySize=auto;html=1;exitX=1;exitY=0.5;exitDx=0;exitDy=0;entryX=0;entryY=0.5;entryDx=0;entryDy=0;labelBackgroundColor=none;strokeColor=#457B9D;fontColor=default;" edge="1" parent="1" source="gwQ7Bb53ZdeWD7UEAoTN-21" target="gwQ7Bb53ZdeWD7UEAoTN-22">
          <mxGeometry relative="1" as="geometry" />
        </mxCell>
        <mxCell id="gwQ7Bb53ZdeWD7UEAoTN-45" style="edgeStyle=orthogonalEdgeStyle;rounded=0;orthogonalLoop=1;jettySize=auto;html=1;exitX=0.5;exitY=1;exitDx=0;exitDy=0;entryX=0.5;entryY=0;entryDx=0;entryDy=0;dashed=1;labelBackgroundColor=none;strokeColor=#457B9D;fontColor=default;" edge="1" parent="1" source="gwQ7Bb53ZdeWD7UEAoTN-21" target="gwQ7Bb53ZdeWD7UEAoTN-28">
          <mxGeometry relative="1" as="geometry" />
        </mxCell>
        <mxCell id="gwQ7Bb53ZdeWD7UEAoTN-21" value="Init Order" style="rounded=0;whiteSpace=wrap;html=1;labelBackgroundColor=none;fillColor=#DDEEEE;strokeColor=#457B9D;fontColor=#1D3557;" vertex="1" parent="1">
          <mxGeometry x="178" y="-1460" width="160" height="40" as="geometry" />
        </mxCell>
        <mxCell id="gwQ7Bb53ZdeWD7UEAoTN-30" style="edgeStyle=orthogonalEdgeStyle;rounded=0;orthogonalLoop=1;jettySize=auto;html=1;exitX=1;exitY=0.5;exitDx=0;exitDy=0;entryX=0;entryY=0.5;entryDx=0;entryDy=0;labelBackgroundColor=none;strokeColor=#457B9D;fontColor=default;" edge="1" parent="1" source="gwQ7Bb53ZdeWD7UEAoTN-22" target="gwQ7Bb53ZdeWD7UEAoTN-23">
          <mxGeometry relative="1" as="geometry" />
        </mxCell>
        <mxCell id="gwQ7Bb53ZdeWD7UEAoTN-22" value="&lt;font style=&quot;font-size: 13px;&quot;&gt;Convert Order Into Logistics&lt;/font&gt;" style="rounded=0;whiteSpace=wrap;html=1;labelBackgroundColor=none;fillColor=#DDEEEE;strokeColor=#457B9D;fontColor=#1D3557;" vertex="1" parent="1">
          <mxGeometry x="378" y="-1460" width="160" height="40" as="geometry" />
        </mxCell>
        <mxCell id="gwQ7Bb53ZdeWD7UEAoTN-31" style="edgeStyle=orthogonalEdgeStyle;rounded=0;orthogonalLoop=1;jettySize=auto;html=1;exitX=0.5;exitY=1;exitDx=0;exitDy=0;entryX=0.5;entryY=0;entryDx=0;entryDy=0;labelBackgroundColor=none;strokeColor=#457B9D;fontColor=default;" edge="1" parent="1" source="gwQ7Bb53ZdeWD7UEAoTN-23" target="gwQ7Bb53ZdeWD7UEAoTN-24">
          <mxGeometry relative="1" as="geometry" />
        </mxCell>
        <mxCell id="gwQ7Bb53ZdeWD7UEAoTN-23" value="Collect Product" style="rounded=0;whiteSpace=wrap;html=1;labelBackgroundColor=none;fillColor=#DDEEEE;strokeColor=#457B9D;fontColor=#1D3557;" vertex="1" parent="1">
          <mxGeometry x="578" y="-1460" width="160" height="40" as="geometry" />
        </mxCell>
        <mxCell id="gwQ7Bb53ZdeWD7UEAoTN-32" style="edgeStyle=orthogonalEdgeStyle;rounded=0;orthogonalLoop=1;jettySize=auto;html=1;exitX=1;exitY=0.5;exitDx=0;exitDy=0;entryX=0;entryY=0.5;entryDx=0;entryDy=0;labelBackgroundColor=none;strokeColor=#457B9D;fontColor=default;" edge="1" parent="1" source="gwQ7Bb53ZdeWD7UEAoTN-24" target="gwQ7Bb53ZdeWD7UEAoTN-25">
          <mxGeometry relative="1" as="geometry" />
        </mxCell>
        <mxCell id="gwQ7Bb53ZdeWD7UEAoTN-24" value="Begin to Transfer Product" style="rounded=0;whiteSpace=wrap;html=1;labelBackgroundColor=none;fillColor=#DDEEEE;strokeColor=#457B9D;fontColor=#1D3557;" vertex="1" parent="1">
          <mxGeometry x="578" y="-1350" width="160" height="40" as="geometry" />
        </mxCell>
        <mxCell id="gwQ7Bb53ZdeWD7UEAoTN-33" style="edgeStyle=orthogonalEdgeStyle;rounded=0;orthogonalLoop=1;jettySize=auto;html=1;exitX=1;exitY=0.5;exitDx=0;exitDy=0;entryX=0;entryY=0.5;entryDx=0;entryDy=0;labelBackgroundColor=none;strokeColor=#457B9D;fontColor=default;" edge="1" parent="1" source="gwQ7Bb53ZdeWD7UEAoTN-25" target="gwQ7Bb53ZdeWD7UEAoTN-26">
          <mxGeometry relative="1" as="geometry" />
        </mxCell>
        <mxCell id="gwQ7Bb53ZdeWD7UEAoTN-25" value="Update Current Transfer Station" style="rounded=0;whiteSpace=wrap;html=1;labelBackgroundColor=none;fillColor=#DDEEEE;strokeColor=#457B9D;fontColor=#1D3557;" vertex="1" parent="1">
          <mxGeometry x="778" y="-1350" width="160" height="40" as="geometry" />
        </mxCell>
        <mxCell id="gwQ7Bb53ZdeWD7UEAoTN-34" style="edgeStyle=orthogonalEdgeStyle;rounded=0;orthogonalLoop=1;jettySize=auto;html=1;exitX=0.5;exitY=1;exitDx=0;exitDy=0;entryX=0.5;entryY=0;entryDx=0;entryDy=0;labelBackgroundColor=none;strokeColor=#457B9D;fontColor=default;" edge="1" parent="1" source="gwQ7Bb53ZdeWD7UEAoTN-26" target="gwQ7Bb53ZdeWD7UEAoTN-27">
          <mxGeometry relative="1" as="geometry" />
        </mxCell>
        <mxCell id="gwQ7Bb53ZdeWD7UEAoTN-26" value="Update Current Transfer Station" style="rounded=0;whiteSpace=wrap;html=1;labelBackgroundColor=none;fillColor=#DDEEEE;strokeColor=#457B9D;fontColor=#1D3557;" vertex="1" parent="1">
          <mxGeometry x="1020" y="-1350" width="160" height="40" as="geometry" />
        </mxCell>
        <mxCell id="gwQ7Bb53ZdeWD7UEAoTN-35" style="edgeStyle=orthogonalEdgeStyle;rounded=0;orthogonalLoop=1;jettySize=auto;html=1;exitX=0;exitY=0.5;exitDx=0;exitDy=0;entryX=1;entryY=0.5;entryDx=0;entryDy=0;labelBackgroundColor=none;fontColor=default;shadow=0;strokeColor=#457B9D;" edge="1" parent="1" source="gwQ7Bb53ZdeWD7UEAoTN-27" target="gwQ7Bb53ZdeWD7UEAoTN-28">
          <mxGeometry relative="1" as="geometry" />
        </mxCell>
        <mxCell id="gwQ7Bb53ZdeWD7UEAoTN-27" value="Product Arrived" style="rounded=0;whiteSpace=wrap;html=1;labelBackgroundColor=none;fillColor=#DDEEEE;strokeColor=#457B9D;fontColor=#1D3557;" vertex="1" parent="1">
          <mxGeometry x="1020" y="-1260" width="160" height="40" as="geometry" />
        </mxCell>
        <mxCell id="gwQ7Bb53ZdeWD7UEAoTN-28" value="Finish Order" style="rounded=0;whiteSpace=wrap;html=1;labelBackgroundColor=none;fillColor=#DDEEEE;strokeColor=#457B9D;fontColor=#1D3557;" vertex="1" parent="1">
          <mxGeometry x="178" y="-1260" width="160" height="40" as="geometry" />
        </mxCell>
        <mxCell id="gwQ7Bb53ZdeWD7UEAoTN-56" value="&lt;font style=&quot;&quot;&gt;&lt;span style=&quot;font-weight: normal;&quot;&gt;&lt;span style=&quot;font-size: 20px;&quot;&gt;Activity Diagram &lt;/span&gt;&lt;font style=&quot;font-size: 16px;&quot;&gt;(arrows show the sequence)&lt;/font&gt;&lt;/span&gt;&lt;/font&gt;" style="text;html=1;align=center;verticalAlign=middle;resizable=0;points=[];autosize=1;strokeColor=none;fillColor=none;fontColor=#1D3557;fontStyle=1" vertex="1" parent="1">
          <mxGeometry x="480" y="-1619" width="369" height="36" as="geometry" />
        </mxCell>
        <mxCell id="UDG6pB2mDLJxzfqLv5W2-1" value="End" style="verticalAlign=bottom;endArrow=block;edgeStyle=elbowEdgeStyle;elbow=vertical;curved=0;rounded=0;strokeColor=#457B9D;fontColor=#000000;fillColor=#A8DADC;exitX=0;exitY=0.5;exitDx=0;exitDy=0;labelBorderColor=none;align=center;labelBackgroundColor=#FFFFFF;fontSize=12;" edge="1" parent="1" source="gwQ7Bb53ZdeWD7UEAoTN-28">
          <mxGeometry x="-0.1148" y="-2" width="80" relative="1" as="geometry">
            <mxPoint x="459" y="-1112" as="sourcePoint" />
            <mxPoint x="126" y="-1240" as="targetPoint" />
            <mxPoint as="offset" />
          </mxGeometry>
        </mxCell>
      </root>
    </mxGraphModel>
  </diagram>
</mxfile>
